<?xml version="1.0" standalone="no"?>
<!DOCTYPE svg PUBLIC "-//W3C//DTD SVG 20010904//EN"
 "http://www.w3.org/TR/2001/REC-SVG-20010904/DTD/svg10.dtd">
<svg version="1.0" xmlns="http://www.w3.org/2000/svg"
 width="260.000000pt" height="260.000000pt" viewBox="0 0 260.000000 260.000000"
 preserveAspectRatio="xMidYMid meet">
<metadata>
Created by potrace 1.14, written by Peter Selinger 2001-2017
</metadata>
<g transform="translate(0.000000,260.000000) scale(0.100000,-0.100000)"
fill="#000000" stroke="none">
<path d="M994 2071 c4 -5 -14 -8 -39 -6 -25 2 -45 -1 -45 -6 0 -5 5 -8 11 -6
6 1 14 -5 16 -13 3 -9 1 -11 -4 -5 -10 13 -23 13 -42 1 -11 -7 -12 -6 -6 5 8
12 6 12 -8 1 -9 -8 -21 -11 -28 -7 -8 6 -8 2 0 -12 9 -18 7 -20 -16 -15 -18 3
-24 1 -19 -7 4 -6 0 -11 -9 -11 -12 0 -15 -5 -11 -16 6 -15 4 -15 -11 -3 -11
9 -14 10 -9 2 4 -7 2 -13 -3 -13 -6 0 -10 -3 -9 -7 4 -11 -34 -53 -48 -53 -6
0 -17 -7 -24 -15 -7 -8 -17 -12 -23 -8 -6 4 -7 1 -2 -7 5 -8 2 -18 -9 -26 -10
-7 -18 -16 -19 -21 -1 -4 -5 -7 -9 -5 -5 1 -8 -4 -8 -11 0 -17 -42 -57 -59
-57 -8 0 -11 -6 -7 -16 6 -15 4 -15 -11 -3 -11 9 -14 10 -9 2 4 -7 2 -13 -3
-13 -6 0 -10 -5 -9 -11 2 -6 -3 -14 -11 -17 -8 -3 -11 0 -7 7 5 7 1 8 -10 4
-11 -4 -13 -8 -6 -11 22 -7 12 -23 -10 -17 -13 3 -18 3 -13 -2 13 -11 18 -36
5 -28 -5 3 -10 1 -10 -5 0 -7 -7 -9 -16 -6 -14 5 -15 4 -4 -9 11 -13 9 -15
-11 -15 -13 0 -19 -4 -14 -8 19 -13 17 -35 -2 -28 -9 4 -14 4 -10 0 4 -4 -1
-17 -10 -28 -17 -20 -17 -20 0 -7 15 12 17 12 11 -3 -3 -9 -9 -16 -13 -16 -9
0 -7 -102 2 -118 5 -7 4 -11 -1 -10 -6 2 -10 -1 -10 -7 0 -5 5 -9 11 -7 6 2 5
-4 -3 -12 -10 -13 -10 -16 1 -16 12 0 12 -2 0 -9 -8 -5 -9 -11 -3 -15 6 -4 9
-15 7 -26 -2 -12 0 -18 6 -15 5 4 7 11 4 16 -4 5 -1 9 5 9 7 0 9 -7 6 -17 -4
-9 -2 -19 4 -23 6 -4 12 -16 13 -27 1 -14 6 -19 15 -15 11 4 13 0 7 -19 -7
-22 -7 -23 10 -9 17 14 18 13 12 -2 -4 -13 -2 -15 10 -11 10 4 14 2 10 -4 -4
-6 0 -14 9 -17 9 -3 12 -11 8 -18 -4 -7 -4 -10 0 -6 10 9 47 -23 39 -34 -3 -5
4 -12 16 -15 12 -3 21 -9 21 -14 0 -5 7 -9 16 -9 8 0 12 -4 9 -10 -3 -5 -1
-10 5 -10 6 0 8 -5 4 -12 -5 -8 -2 -9 9 -5 10 4 16 2 14 -6 -1 -7 4 -11 11
-10 6 2 12 -6 12 -18 0 -11 5 -17 10 -14 6 3 10 1 10 -5 0 -6 5 -8 12 -4 8 5
9 2 5 -9 -4 -11 -1 -17 8 -17 8 0 15 -5 15 -11 0 -5 4 -7 10 -4 5 3 7 0 4 -8
-3 -8 0 -18 7 -23 8 -5 10 -3 4 6 -5 9 -4 11 3 6 7 -4 12 -13 12 -21 0 -8 5
-17 12 -21 7 -4 8 -3 4 4 -5 8 -2 10 9 6 11 -5 13 -10 5 -19 -9 -11 -7 -12 9
-8 23 6 30 -21 9 -31 -7 -3 -2 -3 11 0 19 5 23 3 18 -9 -4 -11 0 -14 16 -10
18 4 19 3 7 -6 -13 -9 -12 -11 5 -11 11 0 26 -9 33 -21 10 -15 10 -19 1 -14
-8 6 -10 4 -5 -4 5 -7 14 -10 22 -7 8 3 13 2 13 -2 -3 -21 3 -30 26 -36 16 -4
22 -11 19 -21 -4 -9 0 -15 9 -15 8 0 17 -9 20 -20 3 -11 11 -20 19 -20 10 0 9
3 -2 10 -8 5 -10 10 -4 10 18 0 24 -13 12 -27 -6 -8 -7 -13 -2 -12 26 5 36 -2
31 -22 -4 -16 -3 -18 8 -9 10 8 15 6 20 -9 3 -12 11 -21 16 -21 6 0 7 5 3 12
-4 7 -3 8 4 4 6 -4 9 -13 5 -22 -3 -9 0 -14 8 -12 9 2 14 -5 13 -18 0 -13 6
-21 15 -20 9 1 15 -5 13 -13 -3 -12 0 -12 13 -1 8 7 18 10 22 6 3 -3 1 -6 -6
-6 -14 0 -4 -12 34 -40 19 -14 19 -14 6 3 -15 19 -5 22 19 7 8 -5 11 -10 5
-11 -5 -1 4 -5 20 -8 17 -4 38 -3 49 2 13 6 16 6 12 -2 -4 -6 0 -11 9 -11 10
0 13 5 9 13 -5 8 -2 8 9 -2 14 -11 17 -11 18 0 1 8 1 18 0 23 -1 5 5 4 13 -4
9 -7 16 -8 16 -3 0 6 12 9 26 7 18 -2 24 2 20 11 -3 8 3 17 13 20 29 9 58 39
56 56 -2 12 3 15 18 11 15 -4 19 -1 14 10 -8 22 3 30 20 16 11 -8 12 -7 7 6
-3 9 -1 16 5 16 6 0 11 7 11 17 0 9 3 13 6 10 4 -3 15 5 26 18 10 13 24 23 31
21 7 -1 9 -1 5 1 -13 7 -9 23 5 23 21 0 50 37 41 52 -4 7 -4 10 1 6 11 -10 45
10 45 26 0 17 35 48 43 39 4 -3 7 1 7 10 0 10 5 17 11 17 5 0 8 4 5 9 -4 5 4
7 16 5 13 -2 18 -2 11 2 -18 8 35 54 55 47 15 -4 15 -3 2 6 -14 10 -8 15 15
12 6 -1 1 6 -10 15 -11 9 -14 14 -6 12 8 -2 25 7 38 20 13 12 28 20 33 17 5
-3 7 0 4 8 -3 9 3 16 15 20 12 3 21 13 21 22 0 9 5 13 10 10 6 -3 10 -1 10 5
0 6 5 8 13 4 7 -5 6 0 -3 11 -8 10 -10 16 -3 12 7 -5 16 1 23 13 6 11 18 20
26 20 9 0 12 5 8 12 -5 8 -2 9 10 5 10 -4 15 -3 11 3 -7 12 12 33 38 43 10 4
16 11 13 16 -3 5 1 12 10 15 8 3 12 11 9 16 -4 6 -3 9 2 8 4 -2 9 1 10 7 1 5
10 12 21 16 14 5 19 15 17 33 -2 14 2 29 7 33 6 3 8 1 4 -5 -3 -6 -1 -14 6
-18 7 -4 10 -4 6 1 -4 4 -2 15 5 23 9 13 9 14 0 8 -7 -4 -13 -3 -13 3 0 5 5
13 10 16 8 5 7 12 -2 23 -10 12 -10 14 0 8 9 -6 11 0 7 24 -3 17 -2 29 3 26 5
-3 9 1 9 9 0 8 -4 12 -9 9 -4 -3 -8 0 -8 5 0 6 6 11 13 11 6 0 4 5 -6 11 -10
6 -14 15 -10 22 11 18 12 37 3 37 -5 0 -11 -6 -13 -12 -3 -7 -4 2 -2 20 2 17
-1 32 -6 32 -6 0 -9 8 -7 17 2 10 -3 18 -12 18 -8 0 -15 7 -15 15 -1 25 -15
39 -32 33 -9 -4 -14 -2 -11 3 3 5 0 15 -8 21 -14 14 -30 0 -19 -17 4 -6 3 -10
-2 -9 -28 5 -45 -2 -39 -17 4 -10 2 -13 -6 -8 -8 5 -9 2 -5 -9 3 -9 3 -16 -1
-16 -28 4 -41 -2 -35 -18 3 -10 3 -15 -1 -11 -8 7 -52 -33 -49 -43 1 -4 -5 -6
-15 -5 -11 1 -17 -6 -16 -20 0 -14 -4 -20 -13 -17 -7 3 -13 0 -13 -7 0 -6 -5
-8 -12 -4 -7 5 -9 2 -5 -8 5 -15 -23 -33 -46 -29 -5 1 -6 -3 -2 -9 5 -8 12 -7
23 2 15 12 16 11 3 -4 -7 -10 -17 -15 -22 -12 -5 3 -9 0 -9 -6 0 -6 -5 -8 -12
-4 -8 5 -9 2 -4 -11 5 -14 4 -16 -7 -7 -11 9 -13 7 -13 -11 1 -13 -4 -21 -11
-20 -7 2 -13 -2 -13 -8 0 -5 -6 -7 -12 -3 -10 6 -10 4 0 -8 10 -13 10 -18 1
-24 -7 -4 -9 -3 -6 3 4 6 0 13 -7 16 -10 4 -14 0 -11 -11 2 -14 -4 -17 -35
-14 -21 2 -47 12 -58 22 -11 11 -23 16 -26 13 -3 -4 -6 1 -6 10 0 8 -9 18 -20
22 -24 8 -62 59 -52 71 4 4 -1 2 -11 -6 -10 -7 -17 -9 -16 -4 3 18 -1 37 -8
31 -11 -12 -32 27 -22 40 7 7 6 14 -2 19 -8 5 -10 3 -4 -7 5 -8 4 -11 0 -6
-12 11 -14 47 -2 40 6 -4 8 1 3 12 -5 15 -4 16 9 5 9 -7 15 -9 14 -4 -3 20 2
35 10 29 5 -3 12 4 16 15 4 11 11 17 17 14 7 -5 9 -1 5 9 -4 11 -2 14 9 10 10
-3 14 2 15 18 0 13 3 18 6 12 6 -15 25 1 36 30 3 9 13 17 22 17 8 0 15 5 15
11 0 5 -5 7 -12 3 -7 -4 -8 -3 -4 4 4 6 14 8 24 5 9 -3 14 -3 10 2 -4 4 6 21
23 39 25 26 31 29 39 16 8 -11 9 -8 6 13 -4 22 -2 27 9 23 15 -5 30 27 20 44
-3 6 0 7 9 4 9 -3 13 -11 10 -18 -3 -6 1 -2 10 8 8 10 13 22 11 27 -3 4 0 11
6 15 8 4 9 3 5 -4 -4 -7 -2 -12 5 -12 6 0 9 8 6 20 -3 11 -1 18 4 14 10 -6 12
7 3 30 -3 9 -10 14 -14 11 -5 -3 -11 4 -15 15 -4 11 -11 18 -16 14 -5 -3 -17
3 -27 13 -9 11 -15 14 -12 8 3 -6 -2 -3 -12 7 -12 13 -18 15 -21 6 -3 -8 -6
-6 -6 5 -1 9 -6 17 -12 17 -5 0 -7 -4 -4 -10 3 -6 -1 -7 -9 -4 -9 3 -13 10
-10 15 3 5 0 9 -5 9 -6 0 -11 -6 -11 -12 0 -9 -3 -10 -8 -2 -8 13 -101 13
-121 0 -7 -5 -16 -5 -20 0 -3 5 -12 10 -20 12 -12 3 -12 0 -2 -12 8 -10 9 -16
1 -21 -5 -3 -10 -1 -10 5 0 6 -14 1 -32 -11 -26 -19 -31 -20 -25 -5 4 10 3 15
-3 11 -6 -3 -10 -15 -10 -26 0 -12 -5 -19 -12 -16 -17 5 -60 -41 -51 -56 4 -7
-1 -6 -10 2 -15 12 -17 12 -11 -3 4 -10 0 -18 -10 -22 -9 -3 -13 -11 -9 -18 4
-6 -1 -5 -10 3 -15 12 -18 10 -26 -10 -8 -21 -16 -12 -12 13 0 5 -5 7 -12 5
-6 -1 -11 3 -10 10 2 8 -4 10 -15 6 -15 -6 -16 -5 -2 12 8 10 10 16 4 12 -6
-3 -20 1 -30 9 -10 9 -13 12 -5 8 9 -5 12 -3 7 5 -5 7 -17 9 -29 5 -22 -6 -22
-6 -2 9 20 16 20 16 -3 10 -18 -4 -21 -2 -16 12 6 15 4 16 -17 5 -22 -12 -23
-12 -10 3 12 15 11 17 -3 17 -9 0 -28 8 -43 17 -31 21 -56 26 -46 10 5 -9 3
-9 -8 -1 -8 5 -21 10 -29 9 -8 -1 -25 2 -38 7 -14 5 -21 4 -18 -1z m124 -36
c-3 -3 -9 2 -12 12 -6 14 -5 15 5 6 7 -7 10 -15 7 -18z m-68 -110 c9 -5 11 -4
6 3 -10 16 -3 15 39 -5 19 -9 35 -21 35 -25 0 -5 4 -6 10 -3 6 3 7 -1 4 -9 -4
-10 -1 -16 9 -16 9 0 18 -9 22 -19 4 -13 12 -18 22 -14 11 4 14 2 9 -5 -4 -7
-2 -12 4 -12 6 0 9 -4 6 -9 -4 -5 -1 -11 6 -13 6 -2 12 -12 14 -22 2 -15 0
-15 -14 -4 -9 7 -13 9 -10 3 7 -13 -17 -36 -28 -27 -5 4 -2 -2 6 -12 10 -13
10 -17 3 -12 -7 4 -13 3 -13 -2 0 -5 -11 -15 -25 -22 -18 -10 -22 -16 -13 -22
9 -5 8 -8 -6 -8 -12 0 -16 -5 -13 -14 4 -10 1 -13 -9 -9 -7 3 -14 0 -14 -7 0
-6 -4 -8 -10 -5 -5 3 -11 1 -11 -4 -1 -6 -2 -17 -3 -23 -1 -7 -11 -13 -23 -12
-13 0 -19 -4 -16 -13 3 -8 -2 -13 -12 -13 -11 0 -15 -5 -11 -15 3 -9 0 -15 -9
-15 -8 0 -15 -3 -15 -7 0 -5 -12 -21 -26 -38 l-25 -30 17 30 16 30 -21 -25
c-11 -14 -21 -29 -21 -33 0 -5 -5 -5 -11 -1 -7 4 -10 1 -7 -6 5 -15 -32 -57
-45 -52 -5 1 -11 -7 -14 -19 -4 -16 -8 -17 -14 -7 -6 9 -9 6 -9 -10 0 -13 -4
-20 -10 -17 -5 3 -10 1 -10 -4 0 -6 -6 -10 -12 -9 -7 2 -12 -5 -10 -14 2 -10
-2 -18 -8 -18 -15 0 -70 -42 -70 -53 0 -5 7 -4 15 3 24 20 18 5 -7 -16 -12
-10 -18 -13 -14 -7 5 9 2 11 -9 7 -11 -4 -12 -10 -6 -18 7 -9 1 -13 -23 -14
-35 -3 -53 18 -39 41 4 7 -1 6 -11 -2 -15 -12 -17 -12 -14 0 2 8 -3 13 -11 11
-9 -2 -11 3 -7 13 5 13 1 15 -16 9 -21 -6 -22 -5 -8 11 9 11 10 16 3 11 -8 -4
-13 -1 -13 8 0 9 -7 16 -15 16 -9 0 -12 6 -9 15 3 8 -1 21 -10 30 -8 9 -12 23
-9 32 5 12 3 14 -8 9 -9 -5 -8 -3 2 6 9 7 14 19 11 27 -3 10 0 11 9 5 12 -6
12 -5 1 8 -11 14 -10 20 7 37 11 11 16 23 11 26 -6 4 -10 1 -10 -5 0 -6 -5 -8
-11 -5 -13 9 -6 16 18 19 10 2 18 11 18 22 0 13 7 19 22 18 18 0 20 3 13 17
-8 14 -6 16 12 11 18 -4 20 -2 16 16 -5 16 -2 20 13 17 13 -3 16 1 12 13 -3 9
-3 14 2 10 4 -4 15 1 24 10 10 11 12 12 6 2 -9 -13 -8 -13 8 -1 14 11 15 17 5
30 -7 9 -8 13 -3 8 4 -4 17 5 28 20 13 20 17 22 13 8 -6 -19 -5 -18 13 2 10
12 22 19 25 15 4 -3 4 2 0 12 -5 14 -4 17 4 12 7 -4 12 -2 12 4 0 6 4 8 10 5
5 -3 7 0 5 8 -3 7 3 22 15 32 11 10 20 14 20 10 0 -5 6 0 14 10 8 11 12 23 10
26 -2 4 4 6 14 5 10 0 17 6 16 15 -1 9 5 16 12 16 7 0 11 -4 8 -9 -3 -4 2 -5
10 -2 9 3 13 11 9 17 -4 6 0 8 10 4 10 -3 17 -2 17 2 0 5 -5 11 -11 13 -6 2
13 3 43 2 31 0 61 -5 68 -9z m-340 -39 c0 -2 -8 -10 -17 -17 -16 -13 -17 -12
-4 4 13 16 21 21 21 13z m-123 -782 c-3 -3 -12 -4 -19 -1 -8 3 -5 6 6 6 11 1
17 -2 13 -5z"/>
<path d="M1080 1916 c0 -3 9 -10 20 -16 11 -6 20 -8 20 -6 0 3 -9 10 -20 16
-11 6 -20 8 -20 6z"/>
<path d="M805 1810 c-3 -5 -1 -10 4 -10 6 0 11 5 11 10 0 6 -2 10 -4 10 -3 0
-8 -4 -11 -10z"/>
<path d="M880 1435 c-7 -9 -11 -17 -9 -20 3 -2 10 5 17 15 14 24 10 26 -8 5z"/>
<path d="M515 1400 c-3 -5 -1 -10 4 -10 6 0 11 5 11 10 0 6 -2 10 -4 10 -3 0
-8 -4 -11 -10z"/>
<path d="M715 1920 c-3 -5 -1 -10 4 -10 6 0 11 5 11 10 0 6 -2 10 -4 10 -3 0
-8 -4 -11 -10z"/>
<path d="M580 1782 c-23 -22 -23 -24 -3 -13 12 6 25 16 28 22 13 20 0 15 -25
-9z"/>
<path d="M1701 1603 c3 -20 -2 -34 -11 -28 -6 4 -7 -1 -3 -11 4 -11 2 -15 -4
-11 -12 8 -22 -12 -16 -31 3 -6 10 -9 16 -5 7 4 7 1 -1 -9 -15 -19 0 -34 21
-22 7 5 6 0 -3 -11 -8 -10 -10 -16 -3 -12 6 4 13 3 15 -2 1 -6 20 -12 41 -14
28 -3 37 -1 37 10 0 9 6 13 14 10 11 -4 13 -1 9 10 -4 10 -2 14 5 9 7 -4 9 2
6 20 -3 19 -1 24 8 18 10 -5 11 -4 1 7 -16 16 -17 33 -1 23 7 -5 8 -3 4 5 -5
7 -14 10 -22 7 -8 -3 -11 0 -7 10 4 10 0 12 -11 8 -11 -4 -15 -2 -11 8 4 9 0
15 -10 15 -10 0 -14 -6 -10 -16 3 -10 -1 -9 -10 4 -13 17 -17 18 -25 5 -5 -8
-6 -18 -3 -24 3 -5 1 -6 -6 -2 -6 4 -9 11 -6 16 3 5 1 12 -5 15 -6 4 -10 3 -9
-2z"/>
<path d="M1625 1411 c-3 -5 -2 -12 3 -15 5 -3 9 1 9 9 0 17 -3 19 -12 6z"/>
<path d="M2093 1085 c0 -8 4 -12 9 -9 5 3 6 10 3 15 -9 13 -12 11 -12 -6z"/>
<path d="M1955 960 c-3 -5 -1 -10 4 -10 6 0 11 5 11 10 0 6 -2 10 -4 10 -3 0
-8 -4 -11 -10z"/>
<path d="M1786 791 c-4 -5 -2 -12 3 -15 5 -4 12 -2 15 3 4 5 2 12 -3 15 -5 4
-12 2 -15 -3z"/>
<path d="M875 770 c-3 -5 -1 -10 4 -10 6 0 11 5 11 10 0 6 -2 10 -4 10 -3 0
-8 -4 -11 -10z"/>
</g>
</svg>
