<?xml version="1.0" standalone="no"?>
<!DOCTYPE svg PUBLIC "-//W3C//DTD SVG 20010904//EN"
 "http://www.w3.org/TR/2001/REC-SVG-20010904/DTD/svg10.dtd">
<svg version="1.0" xmlns="http://www.w3.org/2000/svg"
 width="48.000000pt" height="48.000000pt" viewBox="0 0 48.000000 48.000000"
 preserveAspectRatio="xMidYMid meet">

<g transform="translate(0.000000,48.000000) scale(0.100000,-0.100000)"
fill="#000000" stroke="none">
<path d="M117 332 c-29 -29 -47 -57 -47 -71 0 -31 145 -181 174 -181 13 0 51
30 99 78 77 78 90 105 67 142 -8 12 -16 8 -50 -25 l-40 -39 -22 22 -22 22 39
40 c33 34 37 42 25 50 -22 14 -53 12 -75 -4 -17 -12 -22 -12 -39 0 -34 24 -60
16 -109 -34z m97 6 c9 -15 3 -25 -34 -63 -49 -50 -64 -55 -80 -25 -9 17 -4 27
31 65 44 47 64 53 83 23z"/>
<path d="M310 280 c0 -5 7 -10 15 -10 8 0 15 5 15 10 0 6 -7 10 -15 10 -8 0
-15 -4 -15 -10z"/>
</g>
</svg>
